<svg xmlns="http://www.w3.org/2000/svg" version="1.1" xmlns:xlink="http://www.w3.org/1999/xlink"
  xmlns:svgjs="http://svgjs.dev/svgjs" width="2000" height="3190" viewBox="0 0 2000 3190">
  <g transform="matrix(1,0,0,1,1.6996438028299963,0.9755351681958473)"><svg viewBox="0 0 205 327"
      data-background-color="#191552" preserveAspectRatio="xMidYMid meet" height="3190" width="2000"
      xmlns="http://www.w3.org/2000/svg" xmlns:xlink="http://www.w3.org/1999/xlink">
      <g id="tight-bounds" transform="matrix(1,0,0,1,-0.1742134897900769,-0.10000000000002274)"><svg
          viewBox="0 0 205.34842697958015 327.2" height="327.2" width="205.34842697958015">
          <g><svg viewBox="0 0 395.52 630.2173622828332" height="327.2" width="205.34842697958015">
              <g transform="matrix(1,0,0,1,0,328.7835743957195)"><svg viewBox="0 0 395.52 301.43378788711374"
                  height="301.43378788711374" width="395.52">
                  <g id="textblocktransform"><svg viewBox="0 0 395.52 301.43378788711374" height="301.43378788711374"
                      width="395.52" id="textblock">
                      <g><svg viewBox="0 0 395.52 301.43378788711374" height="301.43378788711374" width="395.52">
                          <g transform="matrix(1,0,0,1,0,0)"><svg width="395.52"
                              viewBox="27.497668085888943 -9.923099999999998 41.649231914111056 31.74172158544215"
                              height="301.43378788711374"
                              data-palette-color="url(#f3e7d389-f621-4c93-97e5-b2bdd1a0ea87)"></svg></g>
                        </svg></g>
                    </svg></g>
                </svg></g>
              <g transform="matrix(1,0,0,1,110.31609764191224,0)"><svg
                  viewBox="0 0 174.8878047161755 301.43378788711374" height="301.43378788711374"
                  width="174.8878047161755">
                  <g><svg xmlns="http://www.w3.org/2000/svg" xmlns:xlink="http://www.w3.org/1999/xlink" version="1.1"
                      x="0" y="0" viewBox="21.679106830508623 1 56.85827385947761 98"
                      enable-background="new 0 0 100 100" xml:space="preserve" height="301.43378788711374"
                      width="174.8878047161755" class="icon-icon-0" data-fill-palette-color="accent" id="icon-0"></svg>
                  </g>
                </svg></g>
              <g></g>
            </svg></g>
          <defs></defs>
          <mask id="1149358c-0737-4fc2-ab94-3c13e4859643">
            <g id="SvgjsG1032"><svg viewBox="0 0 205.34842697958015 327.2" height="327.2" width="205.34842697958015">
                <g><svg viewBox="0 0 395.52 630.2173622828332" height="327.2" width="205.34842697958015">
                    <g transform="matrix(1,0,0,1,0,328.7835743957195)"><svg viewBox="0 0 395.52 301.43378788711374"
                        height="301.43378788711374" width="395.52">
                        <g id="SvgjsG1031"><svg viewBox="0 0 395.52 301.43378788711374" height="301.43378788711374"
                            width="395.52" id="SvgjsSvg1030">
                            <g><svg viewBox="0 0 395.52 301.43378788711374" height="301.43378788711374" width="395.52">
                                <g transform="matrix(1,0,0,1,0,0)"><svg width="395.52"
                                    viewBox="27.497668085888943 -9.923099999999998 41.649231914111056 31.74172158544215"
                                    height="301.43378788711374"
                                    data-palette-color="url(#f3e7d389-f621-4c93-97e5-b2bdd1a0ea87)">
                                    <path
                                      d="M39.73 21.782v0c-1.688 0.13-3.243-0.091-4.665-0.663-1.421-0.566-2.675-1.388-3.761-2.468-1.093-1.079-1.965-2.322-2.615-3.729-0.65-1.407-1.034-2.876-1.152-4.405v0c-0.123-1.595 0.045-3.139 0.505-4.632 0.46-1.493 1.158-2.848 2.093-4.063 0.936-1.209 2.064-2.199 3.382-2.97 1.318-0.77 2.788-1.218 4.409-1.343v0c1.682-0.13 3.234 0.101 4.658 0.694 1.43 0.592 2.681 1.431 3.755 2.518 1.081 1.093 1.946 2.341 2.595 3.742 0.649 1.394 1.032 2.842 1.148 4.344v0c0.123 1.595-0.039 3.139-0.485 4.631-0.453 1.493-1.148 2.847-2.084 4.063-0.929 1.215-2.057 2.201-3.382 2.959-1.319 0.757-2.786 1.198-4.401 1.322zM30.598 10.281v0c0.094 1.216 0.384 2.374 0.869 3.473 0.48 1.106 1.113 2.071 1.899 2.893 0.786 0.822 1.703 1.45 2.753 1.884 1.05 0.44 2.194 0.613 3.43 0.517v0c1.283-0.099 2.409-0.457 3.377-1.073 0.969-0.616 1.774-1.401 2.416-2.353 0.635-0.958 1.095-2.014 1.381-3.165 0.286-1.152 0.384-2.3 0.296-3.443v0c-0.094-1.216-0.384-2.371-0.869-3.464-0.479-1.093-1.118-2.053-1.918-2.881-0.793-0.835-1.711-1.466-2.754-1.893-1.036-0.428-2.162-0.595-3.378-0.502v0c-1.276 0.099-2.402 0.453-3.378 1.063-0.97 0.603-1.772 1.38-2.408 2.332-0.641 0.959-1.109 2.008-1.402 3.148-0.3 1.14-0.405 2.295-0.314 3.464zM54.519 18.468l-2.756 1.307-10.272-21.658 2.756-1.307 5.678 11.972 5.486-17.3 2.963-1.405-4.176 13.69 14.949 7.763-3.09 1.466-12.809-6.753-1.875 5.593z"
                                      opacity="1" transform="matrix(1,0,0,1,0,0)" fill="white" class="wordmark-text-0"
                                      id="SvgjsPath1029"></path>
                                  </svg></g>
                              </svg></g>
                          </svg></g>
                      </svg></g>
                    <g transform="matrix(1,0,0,1,110.31609764191224,0)"><svg
                        viewBox="0 0 174.8878047161755 301.43378788711374" height="301.43378788711374"
                        width="174.8878047161755">
                        <g><svg xmlns="http://www.w3.org/2000/svg" xmlns:xlink="http://www.w3.org/1999/xlink"
                            version="1.1" x="0" y="0" viewBox="21.679106830508623 1 56.85827385947761 98"
                            enable-background="new 0 0 100 100" xml:space="preserve" height="301.43378788711374"
                            width="174.8878047161755" class="icon-icon-0" data-fill-palette-color="accent"
                            id="SvgjsSvg1028">
                            <g fill="black">
                              <path fill-rule="evenodd" clip-rule="evenodd"
                                d="M30.545 28.822c-1.165 7.217 0.33 14.85 6.5 19.041C30.758 19.81 45.756 8.664 59.646 1c-16.18 23.046 16.896 23.644 18.777 50.13C80.028 73.71 64.507 91.317 46.639 99c0.206-22.825-22.55-25.933-24.838-44.603C20.905 47.094 25.062 33.766 30.545 28.822z"
                                fill="black"></path>
                            </g>
                          </svg></g>
                      </svg></g>
                    <g></g>
                  </svg></g>
                <defs>
                  <mask></mask>
                </defs>
              </svg>
              <rect width="205.34842697958015" height="327.2" fill="black" stroke="none" visibility="hidden"></rect>
            </g>
          </mask>
          <linearGradient x1="0" x2="1" y1="0.578" y2="0.595" id="f3e7d389-f621-4c93-97e5-b2bdd1a0ea87">
            <stop stop-color="#6e22f2" offset="0"></stop>
            <stop stop-color="#6454f0" offset="1"></stop>
          </linearGradient>
          <rect width="205.34842697958015" height="327.2" fill="#6e22f2"
            mask="url(#1149358c-0737-4fc2-ab94-3c13e4859643)" data-fill-palette-color="primary"></rect>
          <mask id="fcb2748d-7c79-4660-bb5f-b366e0657bd9">
            <g id="SvgjsG1041"><svg viewBox="0 0 205.34842697958015 327.2" height="327.2" width="205.34842697958015">
                <g><svg viewBox="0 0 395.52 630.2173622828332" height="327.2" width="205.34842697958015">
                    <g transform="matrix(1,0,0,1,0,328.7835743957195)"><svg viewBox="0 0 395.52 301.43378788711374"
                        height="301.43378788711374" width="395.52">
                        <g id="SvgjsG1040"><svg viewBox="0 0 395.52 301.43378788711374" height="301.43378788711374"
                            width="395.52" id="SvgjsSvg1039">
                            <g><svg viewBox="0 0 395.52 301.43378788711374" height="301.43378788711374" width="395.52">
                                <g transform="matrix(1,0,0,1,0,0)"><svg width="395.52"
                                    viewBox="27.497668085888943 -9.923099999999998 41.649231914111056 31.74172158544215"
                                    height="301.43378788711374"
                                    data-palette-color="url(#f3e7d389-f621-4c93-97e5-b2bdd1a0ea87)"></svg></g>
                              </svg></g>
                          </svg></g>
                      </svg></g>
                    <g transform="matrix(1,0,0,1,110.31609764191224,0)"><svg
                        viewBox="0 0 174.8878047161755 301.43378788711374" height="301.43378788711374"
                        width="174.8878047161755">
                        <g><svg xmlns="http://www.w3.org/2000/svg" xmlns:xlink="http://www.w3.org/1999/xlink"
                            version="1.1" x="0" y="0" viewBox="21.679106830508623 1 56.85827385947761 98"
                            enable-background="new 0 0 100 100" xml:space="preserve" height="301.43378788711374"
                            width="174.8878047161755" class="icon-icon-0" data-fill-palette-color="accent"
                            id="SvgjsSvg1038">
                            <g fill="white">
                              <path fill-rule="evenodd" clip-rule="evenodd"
                                d="M30.545 28.822c-1.165 7.217 0.33 14.85 6.5 19.041C30.758 19.81 45.756 8.664 59.646 1c-16.18 23.046 16.896 23.644 18.777 50.13C80.028 73.71 64.507 91.317 46.639 99c0.206-22.825-22.55-25.933-24.838-44.603C20.905 47.094 25.062 33.766 30.545 28.822z"
                                fill="white"></path>
                            </g>
                          </svg></g>
                      </svg></g>
                    <g></g>
                  </svg></g>
                <defs>
                  <mask></mask>
                </defs>
                <mask>
                  <g id="SvgjsG1037"><svg viewBox="0 0 205.34842697958015 327.2" height="327.2"
                      width="205.34842697958015">
                      <g><svg viewBox="0 0 395.52 630.2173622828332" height="327.2" width="205.34842697958015">
                          <g transform="matrix(1,0,0,1,0,328.7835743957195)"><svg
                              viewBox="0 0 395.52 301.43378788711374" height="301.43378788711374" width="395.52">
                              <g id="SvgjsG1036"><svg viewBox="0 0 395.52 301.43378788711374"
                                  height="301.43378788711374" width="395.52" id="SvgjsSvg1035">
                                  <g><svg viewBox="0 0 395.52 301.43378788711374" height="301.43378788711374"
                                      width="395.52">
                                      <g transform="matrix(1,0,0,1,0,0)"><svg width="395.52"
                                          viewBox="27.497668085888943 -9.923099999999998 41.649231914111056 31.74172158544215"
                                          height="301.43378788711374"
                                          data-palette-color="url(#f3e7d389-f621-4c93-97e5-b2bdd1a0ea87)">
                                          <path
                                            d="M39.73 21.782v0c-1.688 0.13-3.243-0.091-4.665-0.663-1.421-0.566-2.675-1.388-3.761-2.468-1.093-1.079-1.965-2.322-2.615-3.729-0.65-1.407-1.034-2.876-1.152-4.405v0c-0.123-1.595 0.045-3.139 0.505-4.632 0.46-1.493 1.158-2.848 2.093-4.063 0.936-1.209 2.064-2.199 3.382-2.97 1.318-0.77 2.788-1.218 4.409-1.343v0c1.682-0.13 3.234 0.101 4.658 0.694 1.43 0.592 2.681 1.431 3.755 2.518 1.081 1.093 1.946 2.341 2.595 3.742 0.649 1.394 1.032 2.842 1.148 4.344v0c0.123 1.595-0.039 3.139-0.485 4.631-0.453 1.493-1.148 2.847-2.084 4.063-0.929 1.215-2.057 2.201-3.382 2.959-1.319 0.757-2.786 1.198-4.401 1.322zM30.598 10.281v0c0.094 1.216 0.384 2.374 0.869 3.473 0.48 1.106 1.113 2.071 1.899 2.893 0.786 0.822 1.703 1.45 2.753 1.884 1.05 0.44 2.194 0.613 3.43 0.517v0c1.283-0.099 2.409-0.457 3.377-1.073 0.969-0.616 1.774-1.401 2.416-2.353 0.635-0.958 1.095-2.014 1.381-3.165 0.286-1.152 0.384-2.3 0.296-3.443v0c-0.094-1.216-0.384-2.371-0.869-3.464-0.479-1.093-1.118-2.053-1.918-2.881-0.793-0.835-1.711-1.466-2.754-1.893-1.036-0.428-2.162-0.595-3.378-0.502v0c-1.276 0.099-2.402 0.453-3.378 1.063-0.97 0.603-1.772 1.38-2.408 2.332-0.641 0.959-1.109 2.008-1.402 3.148-0.3 1.14-0.405 2.295-0.314 3.464zM54.519 18.468l-2.756 1.307-10.272-21.658 2.756-1.307 5.678 11.972 5.486-17.3 2.963-1.405-4.176 13.69 14.949 7.763-3.09 1.466-12.809-6.753-1.875 5.593z"
                                            opacity="1" transform="matrix(1,0,0,1,0,0)" fill="black"
                                            class="wordmark-text-0" id="SvgjsPath1034"></path>
                                        </svg></g>
                                    </svg></g>
                                </svg></g>
                            </svg></g>
                          <g transform="matrix(1,0,0,1,110.31609764191224,0)"><svg
                              viewBox="0 0 174.8878047161755 301.43378788711374" height="301.43378788711374"
                              width="174.8878047161755">
                              <g><svg xmlns="http://www.w3.org/2000/svg" xmlns:xlink="http://www.w3.org/1999/xlink"
                                  version="1.1" x="0" y="0" viewBox="21.679106830508623 1 56.85827385947761 98"
                                  enable-background="new 0 0 100 100" xml:space="preserve" height="301.43378788711374"
                                  width="174.8878047161755" class="icon-icon-0" data-fill-palette-color="accent"
                                  id="SvgjsSvg1033">
                                  <g fill="black">
                                    <path fill-rule="evenodd" clip-rule="evenodd"
                                      d="M30.545 28.822c-1.165 7.217 0.33 14.85 6.5 19.041C30.758 19.81 45.756 8.664 59.646 1c-16.18 23.046 16.896 23.644 18.777 50.13C80.028 73.71 64.507 91.317 46.639 99c0.206-22.825-22.55-25.933-24.838-44.603C20.905 47.094 25.062 33.766 30.545 28.822z"
                                      fill="black"></path>
                                  </g>
                                </svg></g>
                            </svg></g>
                          <g></g>
                        </svg></g>
                      <defs>
                        <mask></mask>
                      </defs>
                    </svg>
                    <rect width="205.34842697958015" height="327.2" fill="black" stroke="none" visibility="hidden">
                    </rect>
                  </g>
                </mask>
              </svg>
              <rect width="205.34842697958015" height="327.2" fill="black" stroke="none" visibility="hidden"></rect>
            </g>
          </mask>
          <linearGradient x1="0" x2="1" y1="0.578" y2="0.595" id="b7f5f230-97b7-4d0e-8e13-9daf948573ca">
            <stop stop-color="#6e22f2" offset="0"></stop>
            <stop stop-color="#6454f0" offset="1"></stop>
          </linearGradient>
          <rect width="205.34842697958015" height="327.2" fill="#6e22f2"
            mask="url(#fcb2748d-7c79-4660-bb5f-b366e0657bd9)" data-fill-palette-color="accent"></rect>
        </svg>
        <rect width="205.34842697958015" height="327.2" fill="none" stroke="none" visibility="hidden"></rect>
      </g>
    </svg></g>
</svg>